<svg width="28" height="28" viewBox="0 0 28 28" fill="none" xmlns="http://www.w3.org/2000/svg">
<path fill-rule="evenodd" clip-rule="evenodd" d="M13.9993 0.666504C14.842 0.666504 15.6047 0.934504 16.1233 1.63984C16.4367 2.0665 16.6113 2.57584 16.6553 3.08117L16.666 3.33317C16.6659 3.72636 16.7528 4.1147 16.9204 4.47038C17.088 4.82606 17.3321 5.14028 17.6354 5.39053C17.9387 5.64078 18.2935 5.82088 18.6745 5.91792C19.0556 6.01496 19.4533 6.02654 19.8393 5.95184L20.0807 5.8945C20.3041 5.82929 20.5395 5.81699 20.7685 5.85857C20.9975 5.90016 21.2136 5.99448 21.3998 6.13408C21.5859 6.27368 21.737 6.45471 21.8411 6.66284C21.9452 6.87097 21.9994 7.10047 21.9993 7.33317C21.9991 8.00594 22.2532 8.65393 22.7107 9.14723C23.1681 9.64054 23.7951 9.94271 24.466 9.99317L24.666 9.99984C25.594 9.99984 26.966 10.5492 27.1847 12.0065C27.282 12.6572 27.3327 13.3225 27.3327 13.9998C27.3327 21.3638 21.3633 27.3332 13.9993 27.3332C6.63535 27.3332 0.666016 21.3638 0.666016 13.9998C0.666016 6.63584 6.63535 0.666504 13.9993 0.666504ZM10.666 16.6665C10.1356 16.6665 9.62687 16.8772 9.2518 17.2523C8.87673 17.6274 8.66602 18.1361 8.66602 18.6665C8.66602 19.1969 8.87673 19.7056 9.2518 20.0807C9.62687 20.4558 10.1356 20.6665 10.666 20.6665C11.1964 20.6665 11.7052 20.4558 12.0802 20.0807C12.4553 19.7056 12.666 19.1969 12.666 18.6665C12.666 18.1361 12.4553 17.6274 12.0802 17.2523C11.7052 16.8772 11.1964 16.6665 10.666 16.6665ZM18.666 13.9998C18.1356 13.9998 17.6269 14.2106 17.2518 14.5856C16.8767 14.9607 16.666 15.4694 16.666 15.9998C16.666 16.5303 16.8767 17.039 17.2518 17.4141C17.6269 17.7891 18.1356 17.9998 18.666 17.9998C19.1964 17.9998 19.7052 17.7891 20.0802 17.4141C20.4553 17.039 20.666 16.5303 20.666 15.9998C20.666 15.4694 20.4553 14.9607 20.0802 14.5856C19.7052 14.2106 19.1964 13.9998 18.666 13.9998ZM10.666 8.6665C10.1356 8.6665 9.62687 8.87722 9.2518 9.25229C8.87673 9.62736 8.66602 10.1361 8.66602 10.6665C8.66602 11.1969 8.87673 11.7056 9.2518 12.0807C9.62687 12.4558 10.1356 12.6665 10.666 12.6665C11.1964 12.6665 11.7052 12.4558 12.0802 12.0807C12.4553 11.7056 12.666 11.1969 12.666 10.6665C12.666 10.1361 12.4553 9.62736 12.0802 9.25229C11.7052 8.87722 11.1964 8.6665 10.666 8.6665Z" fill="#876C4F"/>
</svg>
