<svg width="32" height="32" viewBox="0 0 32 32" fill="none" xmlns="http://www.w3.org/2000/svg">
<g clip-path="url(#clip0_522_101358)">
<path fill-rule="evenodd" clip-rule="evenodd" d="M16.0009 2.6665C16.7735 2.6664 17.537 2.83417 18.2383 3.1582C18.9397 3.48223 19.5624 3.95479 20.0631 4.54317C20.5639 5.13155 20.9308 5.82171 21.1386 6.56589C21.3463 7.31007 21.3899 8.0905 21.2662 8.85317L21.5409 8.77984C22.0507 8.63604 22.584 8.59493 23.1098 8.65889C23.6356 8.72285 24.1435 8.89061 24.604 9.15243C25.0644 9.41425 25.4683 9.76492 25.7921 10.1841C26.116 10.6032 26.3533 11.0826 26.4905 11.5942C26.6276 12.1058 26.6617 12.6396 26.5909 13.1645C26.52 13.6895 26.3456 14.1951 26.0778 14.6521C25.81 15.1091 25.4541 15.5084 25.0307 15.8267C24.6073 16.145 24.125 16.3761 23.6116 16.5065L21.3342 17.1172V18.1305L23.7982 22.3985C24.065 22.8536 24.2392 23.3569 24.3106 23.8796C24.3821 24.4023 24.3495 24.9339 24.2146 25.4439C24.0798 25.9539 23.8454 26.4322 23.525 26.8512C23.2045 27.2703 22.8044 27.6218 22.3475 27.8856C21.8907 28.1493 21.3862 28.3201 20.8631 28.3881C20.34 28.4561 19.8086 28.42 19.2995 28.2817C18.7904 28.1435 18.3136 27.906 17.8967 27.5828C17.4798 27.2596 17.131 26.8571 16.8702 26.3985L16.0009 24.8932L15.1316 26.3998C14.5974 27.3111 13.7244 27.974 12.7032 28.244C11.6821 28.514 10.5955 28.3691 9.68079 27.8409C8.76604 27.3128 8.09732 26.4443 7.82057 25.4249C7.54382 24.4055 7.6815 23.3181 8.20357 22.3998L10.6676 18.1332V17.1185L8.39023 16.5078C7.87684 16.3774 7.39447 16.1464 6.9711 15.828C6.54773 15.5097 6.19181 15.1104 5.92398 14.6534C5.65616 14.1965 5.48177 13.6908 5.41093 13.1659C5.34009 12.6409 5.37422 12.1072 5.51134 11.5955C5.64845 11.0839 5.88582 10.6046 6.20966 10.1854C6.53351 9.76625 6.93738 9.41559 7.39784 9.15376C7.8583 8.89194 8.36618 8.72418 8.892 8.66022C9.41781 8.59626 9.9511 8.63737 10.4609 8.78117L10.7356 8.8545C10.6117 8.09173 10.6551 7.31116 10.8628 6.56682C11.0704 5.82247 11.4373 5.13214 11.9381 4.5436C12.4389 3.95507 13.0616 3.48239 13.7631 3.15828C14.4646 2.83417 15.2281 2.66637 16.0009 2.6665ZM16.0009 17.3332C15.6473 17.3332 15.3081 17.4736 15.0581 17.7237C14.808 17.9737 14.6676 18.3129 14.6676 18.6665C14.6676 19.0201 14.808 19.3593 15.0581 19.6093C15.3081 19.8594 15.6473 19.9998 16.0009 19.9998C16.3545 19.9998 16.6937 19.8594 16.9437 19.6093C17.1938 19.3593 17.3342 19.0201 17.3342 18.6665C17.3342 18.3129 17.1938 17.9737 16.9437 17.7237C16.6937 17.4736 16.3545 17.3332 16.0009 17.3332ZM16.0009 13.3332C15.6473 13.3332 15.3081 13.4736 15.0581 13.7237C14.808 13.9737 14.6676 14.3129 14.6676 14.6665C14.6676 15.0201 14.808 15.3593 15.0581 15.6093C15.3081 15.8594 15.6473 15.9998 16.0009 15.9998C16.3545 15.9998 16.6937 15.8594 16.9437 15.6093C17.1938 15.3593 17.3342 15.0201 17.3342 14.6665C17.3342 14.3129 17.1938 13.9737 16.9437 13.7237C16.6937 13.4736 16.3545 13.3332 16.0009 13.3332Z" fill="#BD967A"/>
</g>
<defs>
<clipPath id="clip0_522_101358">
<rect width="32" height="32" fill="white"/>
</clipPath>
</defs>
</svg>
